:SAMPLES-PER-SECOND 30
:FULLY-SPECIFIED
:DEGREES
182
root  37.8321 36.6693 8.26115 140.961 88.2134 114.903
RightUpLeg  -63.6219 -17.2394 13.1425
RightLeg  30.8565 1.43394 0.682304
RightFoot  6.76652 1.83729 -11.1892
RightToes  0.000482159 0.542163 -0.142577
Spine  66.0581 -5.57302 9.42867
Spine1  5.62735 1.25592 -2.48495
HEad  -37.6372 -11.2921 0.955981
LeftShoulder1  9.78608 -27.0504 -25.6435
LeftArm  -59.1396 -63.5533 14.0561
LeftForeArm  -12.3282 -8.06927 -2.98421
LeftHand  -0.25398 0.0180481 5.50724
RightShoulder  3.26581 13.1288 12.6142
RightArm  -53.8888 55.2049 -9.31548
RightForeArm  -32.9544 14.913 6.23779
RightHand  0.312154 5.3489 2.9684
LeftUpLeg  -61.3822 15.4398 -19.8956
LeftLeg  27.4761 -7.05085 -3.62975
LeftFoot  4.15994 -0.942845 6.81303
LeftToes  1.06245e-005 4.65856e-005 -8.18503e-006
183
root  38.4464 36.6217 8.41488 133.597 88.5846 105.38
RightUpLeg  -65.2849 -15.9083 13.392
RightLeg  32.081 0.736266 0.251514
RightFoot  5.19469 1.63268 -10.9442
RightToes  0.000482159 0.542163 -0.142577
Spine  68.4901 -5.1575 8.95039
Spine1  3.81076 1.51562 -2.66105
HEad  -39.1812 -11.2714 1.62233
LeftShoulder1  9.43353 -27.8834 -23.5613
LeftArm  -65.6941 -63.1693 21.2743
LeftForeArm  -12.5343 -7.0672 -2.11155
LeftHand  -0.25398 0.0180481 5.50724
RightShoulder  3.21925 13.5426 11.7812
RightArm  -59.3199 55.2034 -14.5697
RightForeArm  -30.568 13.3653 5.67078
RightHand  0.464707 7.14933 3.83275
LeftUpLeg  -63.9265 15.6094 -20.091
LeftLeg  29.3671 -6.95225 -3.8793
LeftFoot  3.32629 -0.983498 7.45555
LeftToes  1.06245e-005 4.65856e-005 -8.18503e-006
184
root  39.0592 36.6 8.50967 125.228 88.5626 94.6437
RightUpLeg  -67.3211 -15.3441 13.8594
RightLeg  33.0992 0.747329 0.273907
RightFoot  4.12351 1.46043 -10.5102
RightToes  0.000482159 0.542163 -0.142577
Spine  70.4306 -5.20537 8.59539
Spine1  2.3139 1.6034 -3.33384
HEad  -40.1896 -11.3655 1.86992
LeftShoulder1  9.0845 -28.6021 -21.6894
LeftArm  -70.4302 -62.1287 26.763
LeftForeArm  -13.4025 -6.92976 -1.46458
LeftHand  -0.25398 0.0180481 5.50724
RightShoulder  3.11702 13.6711 10.9628
RightArm  -64.5339 55.3032 -18.6489
RightForeArm  -28.2344 12.0955 4.83356
RightHand  0.668946 8.28049 5.17824
LeftUpLeg  -66.1479 15.8824 -21.0782
LeftLeg  30.208 -7.83818 -4.56347
LeftFoot  2.61076 -0.801148 6.41579
LeftToes  1.06245e-005 4.65856e-005 -8.18503e-006
185
root  39.6475 36.5788 8.54527 123.397 88.3552 90.1989
RightUpLeg  -69.7137 -15.0045 14.3478
RightLeg  34.1005 0.830655 0.348264
RightFoot  2.94579 1.35058 -10.5794
RightToes  0.000482159 0.542163 -0.142577
Spine  71.6124 -5.47912 8.51604
Spine1  0.961254 1.53415 -3.93356
HEad  -40.5925 -11.5551 1.6624
LeftShoulder1  8.69394 -29.16 -19.8932
LeftArm  -73.6889 -60.8204 29.625
LeftForeArm  -14.3002 -7.59851 -0.675189
LeftHand  -0.25398 0.0180481 5.50724
RightShoulder  2.92747 13.5687 9.85125
RightArm  -69.3429 55.4668 -21.5424
RightForeArm  -25.1843 11.1503 3.78992
RightHand  0.921769 8.92334 6.93454
LeftUpLeg  -68.3305 15.6605 -22.5002
LeftLeg  30.7355 -8.21479 -4.90068
LeftFoot  2.4302 -0.915145 7.448
LeftToes  1.06245e-005 4.65856e-005 -8.18503e-006
186
root  40.2041 36.569 8.55878 121.111 88.1854 85.5111
RightUpLeg  -71.6789 -14.4542 14.5114
RightLeg  34.8454 0.468523 0.0908539
RightFoot  1.79159 1.26628 -10.8484
RightToes  0.000482159 0.542163 -0.142577
Spine  72.4294 -5.57871 8.50812
Spine1  -0.418881 1.44176 -4.17601
HEad  -40.8764 -11.6633 1.57864
LeftShoulder1  8.27508 -29.5349 -18.2067
LeftArm  -76.2807 -59.585 30.8233
LeftForeArm  -14.8675 -8.62891 0.255344
LeftHand  -0.25398 0.0180481 5.50724
RightShoulder  2.72256 13.6091 8.47187
RightArm  -72.4834 55.1028 -23.7149
RightForeArm  -22.6473 10.4747 2.97331
RightHand  1.11126 9.94093 7.8479
LeftUpLeg  -70.302 15.1964 -23.5491
LeftLeg  31.3927 -8.02309 -4.90799
LeftFoot  1.95148 -1.05697 8.94752
LeftToes  1.06245e-005 4.65856e-005 -8.18503e-006
